# xmcd CD database file generated by Grip 2.95
# 
# Track frame offsets:
#       150
#       16613
#       35755
# 
# Disc length: 741 seconds
# 
# Revision: 3
# Processed by: cddbd v1.4b41PL1 Copyright (c) Steve Scherf et al.
# Submitted via: Grip 2.95
# 
DISCID=1802e303
DTITLE=the danged - walking the straight and narrow
DYEAR=1900
DGENRE=
TTITLE0=The Night You Cut Me Free
TTITLE1=She's Coming Back
TTITLE2=Honky Tonk Fool
EXTD=
EXTT0=
EXTT1=
EXTT2=
PLAYORDER=
